<?xml version="1.0" encoding="UTF-8"?>
<svg id="_Ñëîé_1" xmlns="http://www.w3.org/2000/svg" version="1.1" viewBox="0 0 99.6 139.2">
  <!-- Generator: Adobe Illustrator 29.3.1, SVG Export Plug-In . SVG Version: 2.1.0 Build 151)  -->
  <defs>
    <style>
      .st0 {
        fill: #fff;
      }
    </style>
  </defs>
  <path class="st0" d="M31.1,9.5c-1.1,0-2,.9-2,2s.9,2,2,2h17c1.1,0,2-.9,2-2s-.9-2-2-2h-17Z"/>
  <path class="st0" d="M28,114.7h0c0-.1-7.5-.1-7.5-.1-8,0-15.1-6-16.3-14v-.6h12.3c1.1,0,2-.9,2-2s-.9-2-2-2H4V20.5C4,11.4,11.4,4,20.5,4h37.9c9.1,0,16.5,7.4,16.5,16.5v2.5c0,1.1.9,2,2,2s2-.9,2-2v-2.5C78.9,9.2,69.7,0,58.4,0H20.5C9.2,0,0,9.2,0,20.5v77.7C0,109.5,9.2,118.7,20.5,118.7h7.5c1.1,0,2-.9,2-2s-.9-2-2-2Z"/>
  <path class="st0" d="M79.1,72.9v-9.8c0-1.1-.9-2-2-2s-2,.9-2,2v9.8c0,1.1.9,2,2,2s2-.9,2-2Z"/>
  <path class="st0" d="M79.8,79.6c-1.2,0-2.3.3-3.4.9l-.6.3v-.6c-.9-3.3-3.9-5.6-7.3-5.6s-2.4.3-3.5.9l-.6.3-.2-.6c-.8-3.3-3.8-5.6-7.2-5.6s-2.2.3-3.2.8l-.7.4v-14.1c0-.5,0-1,0-1.4-.5-2.3-2-4.3-4.3-5.3-.1,0-.2,0-.4,0-.8-.3-1.7-.5-2.6-.5s-1.3,0-1.9.2c-.5,0-.9.3-1.3.5-2.5,1.2-4.1,3.8-4.1,6.6v33.6l-.8-.4c-3.4-2-6.4-3-8.8-3s-3.8.8-5,2.3c-3.3,4.1-1.4,12.5,2.5,16.1,9,9,16,32.5,16.1,32.7.2.7.9,1.2,1.6,1.2h34c.9,0,1.6-.7,1.7-1.6.4-8.6,7.1-31.2,7.4-32.2v-.4h0v-18.1c0-4-3.3-7.3-7.3-7.3ZM84.2,104.8l-.3-.2c-.6,2.2-6.2,21.1-7.2,30.8v.4h-31.3v-.3c-1.9-5.5-8.2-24.2-16.6-32.6-2.9-2.7-4.1-9.2-2.2-11.7.6-.7,1.4-1,2.5-1,2.2,0,5.5,1.4,9.2,3.9h.2v10.8c0,.9.7,1.7,1.7,1.7s1.7-.7,1.7-1.7v-48.2c0-1,.4-2,1.1-2.8,0,0,.3-.3.5-.4.7-.5,1.6-.8,2.5-.8s2.3.5,3.1,1.5c.6.7.9,1.6.9,2.5v31.4c0,.9.7,1.7,1.7,1.7s1-.3,1.3-.7c.2-.3.3-.6.3-.9v-11.2c0-2.2,1.8-3.9,4.1-3.9s3.9,1.8,3.9,3.9v13.7c0,.9.7,1.7,1.7,1.7s1.7-.7,1.7-1.7v-8.7c0-2.2,1.8-3.9,4.1-3.9s3.9,1.8,3.9,3.9v11.5c0,.9.7,1.7,1.7,1.7s1.7-.7,1.7-1.7v-6.4c0-2.2,1.8-3.9,4.1-3.9s4,1.8,4,3.9v17.7Z"/>
  <path class="st0" d="M79.7,79.6s0,0,0,0c0,0,0,0,0,0h0Z"/>
  <path class="st0" d="M93,26.4h-44.2c-3.6,0-6.6,3-6.6,6.6v11.3c0,1.1.9,2,2,2s2-.9,2-2v-11.3c0-1.4,1.2-2.6,2.6-2.6h44.2c1.4,0,2.6,1.2,2.6,2.6v19c0,1.4-1.2,2.6-2.6,2.6h-36c-1.1,0-1.9.9-1.9,2s.9,2,2,2h35.9c3.7,0,6.6-3,6.6-6.6v-19c0-3.7-3-6.6-6.6-6.6Z"/>
  <circle class="st0" cx="59.4" cy="42.5" r="2"/>
  <circle class="st0" cx="67.1" cy="42.5" r="2"/>
  <circle class="st0" cx="74.8" cy="42.5" r="2"/>
  <circle class="st0" cx="82.5" cy="42.5" r="2"/>
</svg>