<svg width="780" height="196" viewBox="0 0 780 196" fill="none" xmlns="http://www.w3.org/2000/svg">
<path d="M775.005 0.585633C774.48 0.848347 771.984 1.8992 769.488 2.95006C763.709 5.2488 756.353 10.109 753.069 13.7213C749.916 17.2023 747.223 22.982 745.45 29.8125C744.005 35.5265 742.035 39.73 740.918 39.5329C740.59 39.4016 740.393 39.73 740.59 40.2554C740.787 40.7808 740.655 41.3719 740.261 41.6346C739.867 41.8317 739.539 41.6346 739.539 41.1749C739.539 40.7151 737.372 42.4228 734.81 44.9842C732.183 47.48 726.863 52.4716 722.988 56.0182L715.895 62.4547L716.946 59.5648C717.471 58.0542 717.996 55.5585 718.062 54.1135C718.193 52.6686 718.522 51.0266 718.785 50.5669C719.179 49.9101 719.113 49.7788 718.653 50.1072C716.683 51.2894 718.587 45.5097 725.221 30.1409C726.994 26.0032 729.162 20.6832 730.016 18.3188C730.869 15.9544 731.592 14.6408 731.658 15.3633C731.658 17.662 729.687 31.5858 728.768 36.052C727.848 40.124 727.914 41.7003 728.899 40.3211C729.621 39.2702 734.941 35.2638 734.941 35.7893C734.941 36.7744 730.344 43.7363 728.636 45.2469L726.863 46.8889L727.717 45.2469C728.177 44.3275 729.162 42.8825 729.95 42.0287L731.329 40.4524L729.227 41.569C727.257 42.5541 726.732 43.2766 726.994 44.7872C727.126 45.5097 723.842 50.5669 721.937 52.6029C721.018 53.6538 720.558 54.4419 721.018 54.4419C722.2 54.4419 731.723 43.0139 734.088 38.7448C736.912 33.8189 737.634 29.7468 737.7 18.6472C737.766 9.12383 737.306 5.18312 736.124 5.18312C734.81 5.18312 723.973 13.4586 719.77 17.7277C713.99 23.5074 712.348 27.4481 712.348 35.7236C712.282 40.7808 712.545 42.2914 714.187 46.1664C715.238 48.7279 716.223 51.9461 716.42 53.4568C716.814 57.1347 714.515 62.2577 710.181 67.3806C708.276 69.6136 706.7 71.781 706.7 72.1751C706.7 73.8171 709.13 72.5035 713.399 68.5628C715.96 66.1984 719.77 63.4399 721.937 62.389C725.681 60.6157 726.075 60.55 728.965 61.3382C730.607 61.7979 734.941 63.6369 738.554 65.3445L745.122 68.5628H752.018C760.031 68.5628 762.526 67.8403 773.232 62.7831C779.8 59.6305 781.113 58.5797 778.946 57.8572C778.486 57.6602 778.289 57.8572 778.552 58.317C778.88 58.7767 778.421 59.0394 777.37 59.0394C776.45 59.0394 775.137 59.6305 774.414 60.4187C773.429 61.4695 772.904 61.6009 771.984 61.0754C771.262 60.7471 769.029 60.2216 766.927 60.0246C762.592 59.5648 762.526 58.7767 766.664 58.6453C771.393 58.514 777.698 57.5288 777.173 57.0691C776.91 56.8064 775.268 56.0839 773.56 55.4928C771.787 54.836 770.408 54.0479 770.408 53.7195C770.408 53.3911 770.079 53.1284 769.685 53.1284C769.357 53.1284 769.16 53.3911 769.357 53.7195C769.62 54.0479 768.175 53.9165 766.336 53.3911C764.365 52.8 760.031 52.4059 756.418 52.4059C751.427 52.4059 749.916 52.2089 749.588 51.4207C749.194 50.3042 748.011 50.1728 748.208 51.2894C748.34 51.8148 747.617 52.2089 746.501 52.3402C744.99 52.5373 744.662 52.3402 745.056 51.4864C745.253 50.8953 745.45 49.9101 745.45 49.319C745.45 48.4652 745.647 48.5309 746.435 49.5817C747.158 50.5012 747.355 50.5669 747.026 49.7131C746.829 49.0563 747.158 48.3995 748.011 47.9398C749.982 46.8232 751.033 47.0203 750.047 48.2025C749.588 48.7279 749.456 49.1877 749.719 49.1877C749.982 49.1877 750.573 48.7279 750.967 48.2682C751.886 47.0203 755.302 46.1664 755.302 47.1516C755.302 47.5457 755.039 47.8741 754.645 47.8741C754.317 47.8741 753.988 48.2025 753.988 48.6622C753.988 49.0563 754.579 48.8593 755.302 48.2025C756.484 47.1516 756.878 47.283 756.747 48.5965C756.681 48.7936 757.666 49.4504 758.783 50.1072L760.884 51.2237L759.439 49.9758C756.287 47.2173 757.798 46.6919 764.759 47.9398C770.539 48.9906 772.05 49.7131 768.766 49.8444C766.336 49.9101 766.27 49.9758 767.781 50.5669C768.634 50.961 770.408 51.0266 771.721 50.8296C772.969 50.6326 774.48 50.7639 775.005 51.0923C776.187 51.8805 775.99 52.0775 773.035 52.997C770.868 53.6538 770.999 53.6538 774.348 53.3911C779.668 52.8656 779.997 52.6686 778.223 51.2237C775.071 48.7936 769.817 46.6262 764.497 45.5097C754.645 43.5393 745.253 45.7724 734.022 52.8C731.263 54.5076 729.03 56.0182 729.03 56.2152C729.03 56.3466 729.227 56.3466 729.556 56.2152C729.819 56.0839 732.183 54.7046 734.81 53.194C737.503 51.6178 739.736 50.5012 739.867 50.6326C740.393 51.158 739.079 52.2089 736.058 53.6538C734.35 54.4419 733.037 55.3614 733.234 55.6898C733.562 56.2152 730.672 57.1347 727.717 57.3975C727.126 57.4631 726.009 57.9229 725.155 58.317C721.806 60.1559 723.513 58.2513 731.066 51.7491C735.467 48.0054 739.867 44.0647 740.787 42.9482C745.516 37.5626 745.778 37.3655 749.588 37.3655C757.732 37.3655 767.452 31.7829 770.868 25.215C772.05 22.982 771.524 23.376 768.503 27.3167C767.124 29.0901 765.81 30.1409 764.956 30.1409C763.774 30.1409 763.709 30.2723 764.497 30.7977C765.482 31.3888 765.613 31.3231 762.132 32.4397C761.607 32.6367 761.344 32.4397 761.541 32.1113C761.738 31.7172 762.395 31.4545 762.92 31.4545C763.446 31.4545 763.774 31.1918 763.709 30.8634C763.577 30.535 764.103 29.7468 764.825 29.1557C765.548 28.5646 765.745 28.2362 765.351 28.499C764.891 28.696 764.497 28.696 764.562 28.3676C764.562 27.7108 770.802 22.9163 771.656 22.9163C772.707 22.9163 774.217 17.9904 775.99 9.38654C776.91 4.78905 777.632 0.782668 777.632 0.454276C777.632 -0.202508 776.319 -0.13683 775.005 0.585633ZM771.656 6.29965C769.488 8.66408 770.079 8.40136 774.348 5.2488C776.253 3.86955 776.45 3.80387 776.122 4.92041C775.925 5.57719 775.531 6.95644 775.334 7.87594C774.94 9.58358 769.751 14.4438 769.751 13.1959C769.751 12.8675 770.933 11.2255 772.378 9.58358C775.596 5.90558 775.728 5.18312 772.707 7.61322C770.605 9.25518 766.467 16.2828 766.467 18.2531C766.467 20.5519 761.673 28.8273 758.651 31.6515C756.878 33.3592 755.105 34.7384 754.842 34.7384C754.579 34.7384 752.281 35.3295 749.85 35.9863L745.319 37.2342L745.778 35.7893C746.041 35.0668 746.567 32.8994 747.092 31.1261C747.552 29.2871 748.208 27.1197 748.603 26.2002C749.522 23.9015 750.244 22.0625 750.376 21.2087C750.901 18.8442 754.711 13.8527 758.06 11.0285C762.067 7.6789 764.431 6.49669 760.819 9.64925C759.702 10.6344 757.798 12.6048 756.55 13.984C754.776 16.0201 754.645 16.4141 755.827 15.7573C756.615 15.3633 757.272 14.7065 757.272 14.3781C757.272 14.1154 758.848 12.6048 760.753 11.1599C762.592 9.71493 764.759 7.94161 765.482 7.28483C766.204 6.56237 767.255 5.83991 767.781 5.57719C768.306 5.31448 767.19 6.56237 765.219 8.40136C762.461 10.9628 761.87 11.8166 762.723 12.145C764.103 12.6705 765.613 11.8166 764.562 11.0942C764.037 10.8315 764.562 10.0433 766.073 8.86111C767.781 7.54754 768.437 7.35051 768.437 8.07297C768.437 9.64925 764.103 15.0349 758.06 20.8803C754.317 24.4926 753.134 25.9375 754.514 25.1494C758.717 22.7849 770.211 9.71493 769.357 8.33569C768.897 7.61322 772.247 3.86955 773.298 3.86955C773.626 3.86955 772.904 4.98609 771.656 6.29965ZM734.613 9.84629C734.022 10.9628 733.365 11.6853 733.168 11.4882C732.774 11.0942 734.679 7.81026 735.27 7.81026C735.467 7.81026 735.138 8.72976 734.613 9.84629ZM736.058 11.4226C735.861 12.8018 735.927 13.59 736.321 13.3929C737.569 12.6048 736.846 15.0349 735.204 16.9396C732.905 19.6324 732.249 19.501 733.365 16.4798C733.825 15.1662 734.219 13.7213 734.285 13.2616C734.285 12.0137 735.533 9.12383 735.992 9.12383C736.255 9.12383 736.255 10.1747 736.058 11.4226ZM731.658 11.4882C731.658 12.0137 730.738 13.3929 729.621 14.5095C728.111 16.0201 727.98 16.4141 728.899 16.2171C729.884 15.9544 729.424 17.3336 726.338 23.3104C724.17 27.4481 722.463 31.1918 722.463 31.7829C722.463 32.3083 722.068 33.6876 721.543 34.8698C720.689 36.8401 720.032 38.5478 717.865 44.3931C717.405 45.5753 716.814 46.5605 716.486 46.5605C715.632 46.5605 715.763 44.3275 716.749 43.2766C717.405 42.4885 717.34 42.4885 716.42 43.1452C714.91 44.3275 714.515 42.7512 715.829 40.6495C716.814 39.0732 716.814 39.0732 715.698 39.927C713.924 41.3062 713.268 39.927 713.333 34.7384C713.399 30.338 714.121 28.3676 716.486 25.6091C717.208 24.7553 717.668 23.8358 717.471 23.5074C717.077 22.8506 723.448 16.4798 728.045 12.8675C731.658 10.109 731.658 10.109 731.658 11.4882ZM774.151 12.6705C773.56 13.59 771.984 15.1006 770.736 16.0857C769.423 17.0709 768.569 17.9904 768.7 18.1874C768.897 18.3188 770.145 17.5307 771.459 16.4141C774.02 14.1811 774.874 14.1154 773.757 16.2171C773.035 17.5963 767.715 22.2595 766.861 22.2595C766.664 22.2595 766.861 21.4057 767.387 20.3548C767.978 19.304 768.175 18.3188 767.978 18.0561C767.715 17.7934 769.094 16.0201 771.065 14.0497C774.677 10.3717 775.99 9.78061 774.151 12.6705ZM736.912 17.2679C736.912 18.2531 732.314 24.4926 731.92 24.0328C731.329 23.5074 733.102 19.9608 734.81 18.1218C736.78 16.0857 736.912 16.0201 736.912 17.2679ZM772.444 20.1578C771.459 21.9968 765.876 26.5286 765.351 25.9375C765.088 25.6748 766.598 23.9015 768.766 21.9311C772.641 18.2531 773.692 17.7934 772.444 20.1578ZM736.977 21.4714C736.649 22.5879 736.518 24.0985 736.715 24.821C736.912 25.4778 736.518 27.1197 735.927 28.3676C734.81 30.7977 731.263 34.5414 730.607 33.9503C730.016 33.3592 732.643 28.696 734.547 26.9227C735.467 26.0032 736.255 25.018 736.255 24.7553C736.255 24.4269 735.204 25.215 733.956 26.5943C731.526 29.1557 730.344 29.2871 731.723 26.7913C732.905 24.4926 737.043 18.9099 737.306 19.1726C737.437 19.304 737.306 20.2892 736.977 21.4714ZM735.598 32.7024C734.613 35.1325 729.03 39.6643 729.03 38.0223C729.03 37.1028 735.664 30.0096 736.124 30.4693C736.321 30.6007 736.058 31.6515 735.598 32.7024ZM744.662 49.9758C744.465 50.4355 743.742 51.158 742.889 51.5521C740.13 52.9313 743.02 53.5881 755.63 54.3762C769.094 55.2301 772.378 55.6241 772.378 56.4123C772.378 57.9229 757.009 58.2513 752.872 56.8064C752.018 56.5436 751.361 56.6093 751.361 56.9377C751.361 57.3318 752.083 57.7915 752.937 57.9886C753.791 58.1856 756.09 59.4335 757.995 60.7471C759.965 62.0606 762.723 63.7026 764.168 64.3594L766.795 65.5416H764.628C762.526 65.6073 754.908 61.7322 751.689 58.9737C749.456 57.0691 747.814 57.0034 741.115 58.4483C737.569 59.1708 732.708 59.8932 730.344 60.0246C726.469 60.2216 726.206 60.1559 727.388 59.3021C729.03 58.0542 734.876 56.3466 738.422 56.0839C739.933 55.9525 741.312 55.8212 741.444 55.8212C741.575 55.7555 741.312 55.3614 740.918 54.836C739.999 53.7195 740.59 51.8148 742.429 50.3699C744.071 48.9906 744.99 48.8593 744.662 49.9758ZM738.751 54.1792C738.225 54.7703 737.174 55.0987 736.518 54.9017C735.401 54.7046 735.467 54.5733 736.912 53.9165C739.276 52.8656 739.999 52.997 738.751 54.1792ZM763.052 60.2873C764.628 61.0754 766.467 61.5352 767.255 61.3382C768.109 61.1411 769.685 61.2725 770.736 61.6009C772.312 62.0606 772.444 62.2577 771.59 62.5861C770.933 62.7831 769.882 63.1772 769.291 63.4399C768.634 63.6369 767.518 63.7683 766.861 63.7026C764.891 63.4399 758.783 60.353 757.6 59.0394C756.484 57.7915 756.55 57.7915 758.389 58.317C759.439 58.6453 761.541 59.4992 763.052 60.2873ZM753.331 61.3382C754.973 62.5204 757.6 64.1623 759.242 65.0162L762.198 66.5268L758.914 67.0522C757.141 67.3149 753.397 67.4463 750.704 67.3149C745.713 67.1835 741.509 65.6729 736.583 62.389C734.35 60.8784 734.613 60.6814 740.655 59.8276C744.793 59.2365 748.011 59.9589 749.062 61.6666C749.785 62.7831 755.367 66.264 756.484 66.264C757.732 66.264 755.63 64.6221 749.719 61.0754C745.253 58.317 745.187 58.2513 747.749 58.711C749.194 58.9737 751.689 60.1559 753.331 61.3382Z" fill="black"/>
<path d="M758.98 14.3124C758.717 14.6408 759.177 14.7722 759.899 14.5751C761.41 14.1811 761.607 13.7213 760.293 13.7213C759.768 13.7213 759.177 13.984 758.98 14.3124Z" fill="black"/>
<path d="M755.565 16.8083C754.185 17.071 750.836 20.0922 751.427 20.4863C751.558 20.6176 753.134 19.6981 754.908 18.5159C756.615 17.3337 757.798 16.4142 757.535 16.4142C757.206 16.4799 756.287 16.6769 755.565 16.8083Z" fill="black"/>
<path d="M729.03 13.0647C728.439 13.4587 728.373 13.7214 728.833 13.7214C729.227 13.7214 729.818 13.393 730.015 13.0647C730.541 12.2765 730.278 12.2765 729.03 13.0647Z" fill="black"/>
<path d="M722.2 18.2533C722.003 18.516 722.594 18.6473 723.448 18.4503C724.367 18.3189 725.09 18.0562 725.09 17.9249C725.09 17.3994 722.528 17.6622 722.2 18.2533Z" fill="black"/>
<path d="M725.746 18.9754C724.893 19.6322 723.054 20.5517 721.674 21.0115C720.295 21.4712 718.784 22.2594 718.325 22.8505C717.668 23.77 717.668 23.77 718.522 23.1789C719.047 22.7191 720.689 22.0623 722.2 21.6026C724.958 20.8144 728.242 18.6471 727.717 18.0559C727.52 17.9246 726.666 18.3187 725.746 18.9754Z" fill="black"/>
<path d="M720.82 24.1642C717.34 26.2003 714.121 29.2215 714.712 29.8783C714.975 30.0753 715.632 29.4842 716.289 28.499C716.88 27.5795 718.85 26.0689 720.558 25.2151C722.265 24.2956 723.842 23.3104 724.104 22.9164C724.696 21.9969 724.498 22.0625 720.82 24.1642Z" fill="black"/>
<path d="M718.259 29.484C715.238 30.9946 713.924 32.0455 713.924 32.965C713.924 33.359 714.581 33.0306 715.435 32.3082C716.223 31.5857 718.062 30.3378 719.507 29.6154C720.952 28.8272 721.871 28.2361 721.477 28.2361C721.149 28.2361 719.704 28.7615 718.259 29.484Z" fill="black"/>
<path d="M718.653 33.819C717.799 34.4101 716.683 34.9355 716.157 35.0012C714.909 35.1982 713.924 36.6431 713.99 38.3508C713.99 39.4673 714.121 39.4016 714.909 37.891C715.435 36.9715 716.945 35.5266 718.193 34.7385C719.441 33.9503 720.492 33.1622 720.492 33.0308C720.492 32.5711 720.229 32.7024 718.653 33.819Z" fill="black"/>
<path d="M743.808 61.798C746.632 64.0967 750.901 66.9209 751.624 66.9209C752.543 66.9209 749.391 63.7683 747.092 62.3891C746.041 61.6666 744.399 60.9442 743.48 60.6814C741.903 60.156 741.903 60.2217 743.808 61.798Z" fill="black"/>
<path d="M741.246 62.7175C744.333 65.4103 746.041 65.9357 743.348 63.3743C741.969 62.0607 740.524 61.0099 740.13 61.0099C739.67 61.0099 740.196 61.7323 741.246 62.7175Z" fill="black"/>
<path d="M430.325 6.49672C424.742 9.12386 417.912 13.6557 414.89 16.7426C411.541 20.0922 409.636 23.5074 407.797 29.3528C406.484 33.4905 406.418 34.213 407.206 34.7384C408.585 35.5923 408.651 35.5923 410.424 33.2278L412.066 31.1261L410.293 32.7024C408.257 34.5414 407.272 34.1473 408.717 32.1113C409.242 31.3232 409.505 30.0753 409.308 29.3528C409.045 28.1706 409.176 28.0392 410.556 28.3676C411.41 28.5647 412.592 28.499 413.117 28.1706C413.905 27.6452 413.774 27.5138 412.657 27.5138C411.607 27.5138 411.147 27.1197 411.147 26.2002C411.147 25.0837 411.607 24.8867 413.708 24.8867C415.482 24.8867 416.401 24.5583 416.664 23.8358C416.992 22.982 416.795 22.8506 415.941 23.2447C414.037 24.0329 411.804 24.4269 411.804 23.9672C411.804 23.4417 414.102 20.2235 416.073 17.7934C417.78 15.8231 421.458 13.5243 422.246 13.9841C422.575 14.2468 423.1 14.0497 423.363 13.6557C423.626 13.1302 423.56 13.0646 423.1 13.3273C422.641 13.59 422.312 13.5243 422.312 13.1959C422.312 12.8675 423.691 11.8823 425.465 11.0942C427.172 10.2404 429.734 8.92682 431.179 8.20436L433.806 6.89079L429.668 11.4883C427.369 13.9841 424.742 16.4142 423.823 16.8739C422.969 17.3993 422.312 17.9248 422.509 18.1218C422.706 18.2532 423.494 18.1218 424.217 17.662C425.071 17.268 425.596 17.2023 425.596 17.5964C425.596 20.0922 408.782 39.2046 408.126 37.4969C407.666 36.5774 405.893 36.3804 405.893 37.2999C405.893 37.694 406.221 38.1537 406.549 38.3507C406.943 38.6135 406.746 39.4673 405.893 40.6495C404.448 42.6855 392.1 53.6538 387.831 56.675C386.386 57.7259 383.365 60.5501 381.132 62.9145L377.06 67.2492L378.308 62.6518C378.964 60.0903 380.147 56.4123 380.935 54.442C385.072 44.0648 379.227 28.9587 367.799 20.6176C362.742 16.9396 362.808 16.8739 362.282 28.302C361.888 36.1834 362.019 39.4016 362.808 43.0796C364.318 50.3699 368.193 56.0182 373.841 59.1708L376.403 60.6157L376.009 63.9653C375.746 65.7386 374.827 68.7599 373.973 70.6645C373.119 72.5035 372.397 74.4082 372.397 74.8679C372.397 75.3277 375.943 71.9781 380.278 67.4463C385.204 62.2577 389.21 58.6454 390.984 57.7916C396.369 55.1644 401.426 56.2153 409.373 61.5352C413.774 64.4908 415.679 65.0162 421.064 65.0162C427.041 65.0162 430.653 64.228 437.878 61.2725C440.833 60.0246 443.855 59.0394 444.577 59.0394C445.825 59.0394 445.825 58.9081 444.249 56.2153C443.395 54.639 441.556 52.1432 440.177 50.6326C438.797 49.122 437.747 47.7428 437.944 47.5457C438.6 46.8889 447.204 47.2173 447.664 47.9398C447.861 48.3339 449.897 49.5161 452.13 50.5669C457.778 53.2597 463.887 52.997 470.454 49.8445C471.899 49.122 473.541 48.5309 474.001 48.5309C477.351 48.5309 470.257 43.8021 464.675 42.2915C459.749 40.9779 455.677 41.4376 449.634 43.9991C443.986 46.4292 439.914 46.4949 433.477 44.2618C426.581 41.8974 424.085 42.0944 429.274 44.5245C433.477 46.4949 440.702 52.9314 440.702 54.7047C440.702 55.6898 440.505 55.6898 438.272 54.7704C436.893 54.1792 434.463 53.5881 432.886 53.3911C431.31 53.2597 429.602 52.8 429.077 52.4059C428.42 51.8148 428.223 51.8805 428.223 52.4059C428.223 52.9314 427.895 52.997 427.041 52.5373C426.187 52.0775 425.53 52.1432 425.071 52.603C424.545 53.1284 424.085 53.1941 423.626 52.7343C423.232 52.3403 421.13 52.1432 418.7 52.2746C414.956 52.5373 414.496 52.4059 414.825 51.4864C415.153 50.6983 415.744 50.5669 417.124 50.8296C418.24 51.0924 419.028 50.961 419.028 50.6326C419.028 49.6474 421.064 49.0563 421.918 49.7788C422.312 50.1072 423.363 50.3699 424.282 50.3699C425.202 50.3042 426.91 50.5669 428.092 50.8296C429.799 51.2237 430.194 51.158 430.194 50.2385C430.194 49.4504 429.799 49.2534 428.617 49.5818C427.501 49.8445 426.844 49.5818 426.384 48.7279C425.793 47.7428 425.465 47.6771 424.414 48.2682C423.691 48.7936 422.838 48.8593 422.181 48.4652C420.999 47.8084 419.028 48.3339 419.028 49.2534C419.028 49.5818 418.568 49.8445 418.043 49.8445C417.386 49.8445 417.255 49.4504 417.518 48.7279C417.977 47.6114 417.912 47.6114 416.204 48.7279C414.234 49.9758 413.511 50.1729 414.102 49.1877C414.562 48.3995 412.46 49.1877 408.717 51.0924C405.367 52.8 394.99 55.9526 393.939 55.6242C392.691 55.1644 401.426 49.0563 408.388 45.444C414.234 42.4885 414.825 42.2915 419.685 42.2915C422.509 42.2915 424.545 42.0944 424.151 41.8974C423.823 41.7003 424.677 41.3063 426.056 41.1092C427.435 40.9122 430.062 40.1241 431.836 39.2702C433.675 38.4164 435.448 37.7596 435.776 37.7596C436.564 37.694 439.783 34.016 439.586 33.3592C439.389 32.7024 445.234 28.4333 447.664 27.4481C448.715 27.0541 450.817 26.3316 452.393 25.8062C455.151 24.9524 455.151 24.9524 454.232 26.2659C453.706 27.0541 452.656 28.0392 451.933 28.6303C451.145 29.1558 450.685 29.8126 450.882 30.1409C451.276 30.7321 445.759 35.5266 441.556 38.2194C438.338 40.2554 437.747 41.6347 440.505 40.5838C446.745 38.2194 458.567 25.4121 456.465 23.3104C455.677 22.5223 450.554 23.9672 445.431 26.3973C442.607 27.7765 440.045 29.7469 436.893 33.0308C433.74 36.3804 431.704 37.9567 429.734 38.6135C428.158 39.1389 426.91 39.73 426.91 39.927C426.91 40.1241 424.348 40.3868 421.13 40.5181L415.416 40.7152L418.371 38.8105C422.115 36.3147 424.414 34.1473 423.954 33.4249C423.757 33.0965 424.151 32.7024 424.742 32.4397C426.975 31.7172 430.259 26.3316 432.164 20.4205C434.594 12.8675 436.17 4.52637 435.185 4.52637C434.791 4.52637 432.624 5.38019 430.325 6.49672ZM431.573 12.9989C429.734 15.8231 426.253 19.107 426.253 17.9904C426.253 17.5964 429.537 13.1302 431.77 10.6345C433.872 8.13868 433.806 9.51793 431.573 12.9989ZM431.179 17.0053C430.259 18.7786 425.071 22.9163 423.823 22.9163C423.232 22.8506 430.916 15.2319 431.704 15.1006C431.967 15.1006 431.77 15.8887 431.179 17.0053ZM430.062 21.7341C429.537 22.5879 427.829 23.9015 426.319 24.6896C422.444 26.66 422.181 27.0541 425.596 25.8719C427.172 25.3464 428.552 24.9524 428.617 25.0837C429.208 25.6091 425.793 28.4333 423.166 29.6155C419.554 31.1918 419.488 31.7172 423.1 30.4037C426.91 29.0901 426.975 29.7469 423.232 32.1113C420.473 33.8189 420.342 34.0817 421.984 33.6876C424.48 33.0965 415.35 39.6643 409.505 42.6198C407.403 43.7364 405.17 44.9843 404.645 45.444C404.054 45.9038 404.645 44.9186 405.893 43.3423C407.14 41.7003 409.768 39.1389 411.804 37.6283C417.321 33.2935 418.109 32.6367 417.058 33.1622C416.532 33.4249 415.547 34.0817 414.956 34.6071C414.299 35.1325 413.774 35.3295 413.774 35.0011C413.774 34.2787 418.634 29.4842 420.999 27.9079C421.852 27.3168 422.246 26.857 421.787 26.857C420.342 26.857 421.59 25.6091 425.793 22.9163C430.456 19.9608 431.376 19.6981 430.062 21.7341ZM367.339 24.1642C367.536 23.6388 367.733 23.9672 367.733 24.8867C367.865 27.1197 369.769 34.0817 373.25 44.5902C374.892 49.4504 376.403 54.7704 376.666 56.3466L377.125 59.1708L374.958 57.9886C370.032 55.1644 363.99 46.7576 364.712 43.8021C364.909 43.1453 364.778 42.4228 364.449 42.2258C364.121 42.0287 363.858 41.569 363.858 41.1749C363.858 40.7808 364.252 40.7808 364.844 41.3063C365.96 42.2258 371.214 43.408 370.755 42.5542C370.558 42.2915 369.441 41.8317 368.324 41.569C365.632 41.0436 363.858 39.927 363.858 38.8762C363.858 38.3507 364.647 38.5478 366.157 39.4016C369.244 41.2406 369.244 39.73 366.091 36.9058C363.07 34.2787 363.333 32.571 366.354 35.0668C367.536 36.052 368.653 36.7088 368.85 36.5774C369.244 36.1177 364.712 31.4545 363.858 31.4545C363.399 31.4545 363.267 30.9948 363.464 30.4037C363.661 29.8126 363.858 28.7617 363.858 27.9736C363.858 26.857 364.252 27.1854 365.829 29.4842C368.127 32.9651 368.193 32.8338 366.485 27.8422C364.975 23.4417 364.778 21.0773 366.091 23.5074C366.748 24.6896 367.077 24.821 367.339 24.1642ZM370.558 28.0392L370.623 30.4693L370.886 28.2363C371.149 26.1346 371.214 26.0689 372.134 27.4481C372.922 28.499 372.922 29.0901 372.397 30.2066C371.937 30.9291 371.805 31.7172 371.937 31.9143C372.134 32.0456 372.462 31.5859 372.725 30.8634C373.25 29.1558 373.841 29.1558 375.352 30.7977C376.206 31.7172 376.403 32.6367 376.075 34.1473C375.746 35.855 375.812 36.052 376.6 35.4609C378.242 34.0817 378.373 37.3656 376.797 40.7808C376.009 42.4885 375.221 43.9334 374.958 43.9334C374.761 43.9334 373.776 41.1749 372.791 37.8253C371.74 34.5414 370.689 31.3232 370.426 30.7321C369.375 28.696 368.85 24.624 369.704 25.1494C370.098 25.4121 370.492 26.7257 370.558 28.0392ZM380.738 45.3783C381 46.8889 380.541 49.5818 379.555 52.603C378.176 57.0034 378.045 57.2661 377.651 55.4271C377.388 54.3106 377.519 52.8657 377.848 52.1432C378.176 51.4208 378.242 51.0924 377.914 51.3551C377.585 51.6178 376.863 50.4356 376.272 48.5966C375.155 45.3127 375.155 45.3127 376.863 42.0287L378.636 38.6791L379.555 40.8465C380.015 41.9631 380.606 44.0648 380.738 45.3783ZM467.433 44.9843C469.338 45.5097 471.046 46.2322 471.308 46.6919C471.637 47.2173 471.374 47.283 470.52 46.9546C468.024 45.9694 461.851 45.247 458.698 45.6411C449.372 46.6919 447.533 46.1008 454.823 44.3275C459.026 43.3423 461.982 43.4737 467.433 44.9843ZM455.151 48.8593C457.778 50.8296 458.37 50.961 456.925 49.319C456.268 48.6623 455.808 47.8741 455.808 47.6114C455.808 47.086 458.829 48.5966 460.734 50.1072C461.982 51.0924 461.851 51.158 459.026 50.8953C456.137 50.6983 451.867 48.7936 451.867 47.7428C451.867 46.8233 452.853 47.1517 455.151 48.8593ZM463.033 48.2682C465.726 49.3847 466.514 50.5013 464.543 50.5013C462.967 50.4356 457.778 47.2173 459.223 47.2173C459.88 47.2173 461.588 47.6771 463.033 48.2682ZM468.55 47.8741C469.535 47.8741 469.601 48.0712 469.009 48.7936C468.09 49.8445 466.054 49.4504 464.872 48.0055C464.149 47.1517 464.215 47.0203 465.66 47.4144C466.579 47.6771 467.827 47.8741 468.55 47.8741ZM413.774 51.7491C413.774 52.3403 409.833 53.3254 409.308 52.8C408.979 52.4716 411.672 51.2894 412.986 51.2237C413.38 51.158 413.774 51.4208 413.774 51.7491ZM432.492 55.1644C435.382 55.5585 438.338 55.9526 439.06 56.0839C439.783 56.1496 440.768 56.281 441.228 56.3466C441.622 56.3466 442.016 56.7407 442.016 57.1348C442.016 57.5288 440.965 57.6602 439.257 57.4632C437.681 57.2661 434.397 56.9377 431.836 56.7407L427.238 56.3466L429.208 57.6602C430.325 58.4483 431.376 58.7767 431.77 58.3827C432.098 58.0543 432.952 58.0543 433.74 58.3827C435.448 58.9738 435.645 59.0394 437.878 59.0394C440.374 59.0394 438.994 60.0246 435.251 60.9441C432.689 61.5352 431.77 61.5352 429.997 60.6814C428.158 59.7619 428.026 59.7619 429.143 60.6157C430.719 61.8636 430.522 62.0607 427.566 62.6518C425.202 63.0458 424.545 62.7174 418.897 58.2513C417.649 57.2661 415.613 56.2153 414.365 56.0182L412.132 55.6242L414.759 57.2005C416.204 58.0543 418.766 59.8276 420.473 61.1412L423.56 63.5056L420.013 63.3085C418.109 63.1772 415.744 62.5861 414.825 61.9293C413.84 61.3382 412.92 61.0098 412.657 61.2068C412.46 61.4039 411.344 60.8784 410.096 59.9589C407.14 57.6602 403.265 55.7555 401.689 55.7555C399.456 55.7555 401.032 55.0331 404.251 54.5733C408.585 53.9165 426.121 54.3106 432.492 55.1644Z" fill="black"/>
<path d="M365.172 43.7364C365.172 44.9186 367.865 47.2174 369.244 47.2174C370.689 47.2174 370.82 47.4144 366.026 43.7364C365.5 43.3424 365.172 43.3424 365.172 43.7364Z" fill="black"/>
<path d="M367.865 49.3846C369.244 50.5012 373.053 52.3402 373.053 51.9461C373.053 51.6177 372.002 50.8952 370.755 50.3041C368.653 49.319 367.077 48.7935 367.865 49.3846Z" fill="black"/>
<path d="M373.71 33.162C372.856 35.2637 372.856 37.1684 373.644 36.3145C374.367 35.5921 375.286 31.4543 374.761 31.4543C374.498 31.4543 374.038 32.2425 373.71 33.162Z" fill="black"/>
<path d="M374.827 38.4164C374.564 38.6791 374.367 39.3359 374.367 39.927C374.367 40.6495 374.564 40.7151 375.089 40.1897C375.483 39.7956 375.746 39.1388 375.549 38.6791C375.418 38.285 375.089 38.1537 374.827 38.4164Z" fill="black"/>
<path d="M377.979 44.6558C377.388 45.7723 376.994 46.8232 377.125 46.9545C377.322 47.0859 377.914 46.1664 378.505 44.9185C379.884 42.0943 379.358 41.8316 377.979 44.6558Z" fill="black"/>
<path d="M405.236 55.7556C405.761 56.084 406.746 56.4124 407.403 56.4124C409.045 56.4124 412.329 58.1857 415.613 60.8785C417.124 62.1264 418.569 63.0459 418.7 62.8488C418.897 62.7175 417.124 61.0098 414.759 59.1052C411.278 56.281 410.03 55.6242 407.403 55.3615C405.17 55.1645 404.513 55.2958 405.236 55.7556Z" fill="black"/>
<path d="M418.7 56.2809C419.422 56.872 425.399 61.0754 426.713 61.9292C428.355 62.9144 426.778 60.6813 424.348 58.6453C422.312 56.872 416.861 54.5732 418.7 56.2809Z" fill="black"/>
<path d="M425.53 57.7917C427.238 59.2366 427.829 59.1053 427.172 57.4633C426.975 56.8722 426.122 56.4125 425.333 56.4125C423.954 56.4781 423.954 56.4781 425.53 57.7917Z" fill="black"/>
<path d="M549.4 8.59832C549.269 9.05807 548.48 12.342 547.692 15.8886C545.196 27.1853 546.576 36.1833 552.027 44.6558C553.866 47.4143 555.639 50.2384 556.033 50.8952C556.69 52.0118 556.887 51.8804 557.544 49.516C558.792 44.9842 558.004 30.4036 556.296 26.5285C555.508 24.6895 554.326 19.3039 554.391 17.859C554.457 16.2827 556.23 22.7849 556.362 24.8866C556.427 27.8421 557.544 24.2955 557.544 20.7488C557.61 19.0412 557.807 17.6619 558.135 17.6619C558.398 17.6619 559.317 19.1725 560.237 21.0115C561.747 24.2955 561.747 24.4268 560.697 26.3972C560.04 27.448 559.646 28.4989 559.843 28.6302C559.974 28.8273 560.565 28.1048 561.091 27.054C561.944 25.4777 562.142 25.3463 562.536 26.3972C562.864 27.1196 562.536 28.1048 561.813 29.0243C560.762 30.2065 560.762 30.3379 561.747 29.5497C562.667 28.8273 562.864 28.8273 562.864 29.5497C562.864 30.0752 563.061 31.126 563.258 31.8485C563.521 32.8993 562.995 33.8845 561.419 35.4608C560.237 36.643 559.843 37.1028 560.631 36.5116C561.353 35.9205 562.207 35.3951 562.47 35.3951C563.258 35.3951 562.142 40.7807 560.828 43.4079C559.055 46.8232 559.252 47.874 561.156 45.3126C562.01 44.1303 563.258 41.3062 563.915 38.9417C566.411 29.6811 563.258 19.895 555.245 12.0793C550.779 7.7445 549.86 7.21908 549.4 8.59832ZM553.932 24.5582C554.983 29.3527 555.836 35.6578 556.099 40.6494L556.493 48.8592L555.114 47.677C553.866 46.4948 552.027 42.6197 552.749 42.6197C552.947 42.6197 553.538 43.6049 554.063 44.7214L555.048 46.8888L554.588 44.6558C554.391 43.4736 553.603 41.8973 552.947 41.2405C552.29 40.5837 551.699 39.6642 551.699 39.2701C551.699 38.8104 551.173 38.0879 550.582 37.6939C549.466 36.84 549.466 36.7744 550.582 35.5921C551.961 34.0159 552.027 33.162 550.713 33.6218C550.188 33.8845 549.597 33.7532 549.4 33.4248C548.94 32.7023 551.305 28.6959 551.896 29.2213C552.093 29.4184 552.158 27.9078 552.027 25.8717C551.896 23.8357 551.633 21.9967 551.436 21.7997C551.239 21.537 551.042 21.7997 551.042 22.2594C551.042 22.8505 550.582 22.6535 549.728 21.734C548.415 20.3548 547.889 18.5814 549.006 19.2382C549.663 19.6323 549.991 18.4501 550.779 13.3928L551.305 10.1089L551.764 13.3928C552.027 15.1662 553.012 20.2234 553.932 24.5582ZM556.559 16.0857C557.15 18.4501 556.493 18.9098 555.639 16.7424C554.851 14.5751 554.851 14.378 555.574 14.378C555.902 14.378 556.362 15.1662 556.559 16.0857ZM550.713 24.2298C551.633 26.0031 551.633 26.3972 550.713 28.1705C550.122 29.2213 549.466 30.1408 549.137 30.1408C548.086 30.1408 547.824 28.3018 548.809 27.5137C549.991 26.4628 549.991 25.5434 548.743 25.5434C547.758 25.5434 547.364 23.5073 548.218 22.7192C549.006 21.8654 549.728 22.2594 550.713 24.2298Z" fill="black"/>
<path d="M550.451 20.0264C550.451 20.7488 550.648 20.9459 550.845 20.4204C551.042 19.9607 550.976 19.3696 550.779 19.1725C550.582 18.9098 550.385 19.3039 550.451 20.0264Z" fill="black"/>
<path d="M551.699 30.7322C551.699 31.0606 552.027 31.586 552.355 31.783C552.749 31.9801 553.012 31.9144 553.012 31.5203C553.012 31.1919 552.749 30.6665 552.355 30.4695C552.027 30.2724 551.699 30.3381 551.699 30.7322Z" fill="black"/>
<path d="M553.078 39.73C553.078 40.4524 553.275 40.6495 553.472 40.124C553.669 39.6643 553.603 39.0732 553.406 38.8762C553.209 38.6134 553.012 39.0075 553.078 39.73Z" fill="black"/>
<path d="M425.202 14.1154C424.02 15.0349 424.02 15.1006 425.465 14.3781C426.253 13.984 426.91 13.5243 426.91 13.3929C426.91 12.8675 426.581 12.9989 425.202 14.1154Z" fill="black"/>
<path d="M418.043 18.3189C416.664 19.7638 415.744 21.1431 416.007 21.4058C416.467 21.9312 419.028 19.2384 420.408 16.8083C421.393 15.1007 420.867 15.4291 418.043 18.3189Z" fill="black"/>
<path d="M605.555 19.5011C600.498 21.4058 597.411 23.3105 594.521 26.463C593.01 28.105 591.763 29.6813 591.828 29.944C592.091 31.3232 591.697 32.7682 591.106 32.7682C590.646 32.7682 590.646 32.2427 591.171 31.2576C591.565 30.4694 590.712 31.1919 589.201 32.8995C587.625 34.6728 586.049 36.0521 585.589 36.0521C585.129 36.0521 583.487 36.9716 581.911 38.0881C578.955 40.2555 578.955 39.8614 582.305 35.7237C584.669 32.7682 586.771 28.8931 586.311 28.3677C586.114 28.2363 585.129 29.4842 584.144 31.2576C581.254 36.3148 577.51 41.1093 575.146 42.8826C571.928 45.3784 571.534 44.9843 574.292 41.9631C575.54 40.5182 576.788 38.5479 577.051 37.5627C577.248 36.5118 577.707 35.1326 578.036 34.4101C578.89 32.6368 584.538 26.3973 584.538 27.1855C584.538 27.9736 581.582 32.5054 579.743 34.5415C579.021 35.3953 578.561 36.2491 578.824 36.4461C579.349 37.0373 587.165 26.2003 587.165 24.8211C587.165 22.5223 585.786 22.9164 582.568 26.2003C579.087 29.7469 577.51 32.4398 575.737 37.7597C575.08 39.7957 573.701 42.0288 572.059 43.6051C570.68 44.9843 569.629 46.3636 569.76 46.5606C569.957 46.8233 569.563 47.4801 568.972 47.9399C568.053 48.728 567.921 48.728 568.381 47.8742C568.972 46.692 565.163 50.8297 561.682 55.0988C560.368 56.7408 558.661 59.3679 558.004 60.8785C556.625 63.8997 555.639 63.5713 555.639 60.1561C555.639 59.1709 555.377 57.8573 555.114 57.2005C554.786 56.6094 553.8 54.6391 552.947 52.8001C552.093 51.0268 550.319 48.2026 549.072 46.5606C547.758 44.9187 544.474 40.4525 541.65 36.6432C536.527 29.4842 532.455 25.4779 527.726 22.9821C525.099 21.6028 522.143 21.1431 522.143 22.1939C522.143 22.4566 524.836 25.0181 528.054 27.7766C531.338 30.5351 533.966 32.5054 533.966 32.1114C533.966 31.783 533.637 31.4546 533.243 31.4546C532.915 31.4546 532.718 31.2576 532.849 30.9292C533.046 30.6664 531.601 29.1558 529.696 27.5139C526.15 24.4927 525.033 22.9821 527.332 24.23C529.893 25.5435 535.41 31.4546 535.016 32.4398C534.819 32.9652 535.016 33.5563 535.41 33.819C535.87 34.0817 535.936 34.016 535.673 33.5563C534.819 32.1114 536.002 32.7682 537.578 34.5415C539.417 36.6432 539.745 37.9567 538.103 36.6432C536.396 35.2639 540.927 41.175 544.408 44.7216C546.05 46.4949 547.036 47.8742 546.576 47.8742C545.591 47.8742 538.103 44.2619 536.79 43.1453C536.264 42.7513 535.739 42.6199 535.542 42.817C535.213 43.1453 535.739 43.7364 538.235 45.6411C538.957 46.2322 538.169 45.9038 536.461 45.05C534.425 43.9335 533.309 43.6708 533.112 44.1305C532.915 44.7216 532.586 44.7216 531.864 44.1305C531.338 43.6708 529.302 43.211 527.332 43.014C525.362 42.8826 521.749 41.9631 519.319 40.978C514.59 39.0733 512.62 39.139 516.364 41.0436C517.546 41.6347 519.516 43.211 520.698 44.5246C522.8 46.7577 522.997 46.1666 520.961 43.7364C519.254 41.7661 520.896 42.4886 523.523 44.9187C524.968 46.1666 526.478 47.2174 526.938 47.2174C527.332 47.2174 526.938 46.5606 525.953 45.8382C523.851 44.3276 523.588 43.2767 525.296 43.6051C530.879 44.7216 535.805 46.2322 535.082 46.692C533.637 47.6115 529.828 47.2831 528.449 46.0352C527.332 45.1157 527.266 45.1157 527.923 45.9695C529.04 47.4144 527.398 48.0712 525.099 47.2174C524.179 46.889 523.063 46.7577 522.472 46.9547C521.881 47.2174 519.648 45.6411 516.561 42.8826C512.16 38.9419 508.548 36.9716 509.205 38.9419C509.336 39.336 509.73 39.6644 510.059 39.6644C510.453 39.6644 512.489 41.1093 514.59 42.9483C519.91 47.2831 520.107 47.4801 518.597 46.9547C516.232 46.1009 511.701 42.9483 511.635 42.0945C511.635 41.7004 511.306 41.3063 510.912 41.3063C510.518 41.3063 509.402 40.4525 508.482 39.4674C507.497 38.4165 506.118 37.2343 505.395 36.8402C503.688 35.855 505.395 35.855 507.234 36.8402C508.023 37.2343 509.796 37.694 511.109 37.7597C513.277 37.9567 521.618 40.2555 525.033 41.7004C525.953 42.0288 526.15 41.9631 525.821 41.4377C525.296 40.5182 526.807 40.3869 527.726 41.2407C528.12 41.5034 529.368 42.0945 530.55 42.4886C532.521 43.1453 532.652 43.1453 531.995 41.8975C531.601 41.175 531.01 40.7809 530.616 41.0436C530.288 41.2407 529.04 40.7152 527.857 39.7957C525.362 37.9567 522.8 36.5118 522.8 37.0373C522.8 37.2343 523.785 37.9567 524.968 38.6792C527.726 40.3869 526.018 40.3869 521.093 38.6135C518.991 37.8911 516.035 37.1029 514.59 36.9716C513.145 36.7745 511.438 36.5118 510.847 36.4461C510.19 36.3805 509.467 36.1178 509.27 35.855C508.548 35.1326 512.883 35.3296 514.262 36.0521C515.313 36.5775 515.444 36.5775 515.182 35.7237C514.656 34.4101 515.838 34.4758 518.071 35.855C519.779 36.9716 519.779 36.9716 518.925 35.855C517.677 34.2788 518.531 33.622 520.042 34.9355C521.355 36.1834 522.472 36.4461 521.815 35.3953C521.618 35.0012 521.815 34.7385 522.406 34.7385C522.932 34.7385 523.523 35.1326 523.654 35.5266C523.917 36.1834 524.114 36.1834 524.639 35.5266C525.099 34.8699 525.69 35.0669 527.398 36.5118C529.105 37.8911 529.499 38.0224 529.171 37.1686C528.777 36.0521 528.974 36.1178 531.076 37.4313L533.44 38.8762L533.177 37.4313C533.046 36.3148 532.061 35.5923 529.368 34.6072C522.669 32.0457 503.097 33.0309 503.097 35.855C503.097 37.497 512.489 46.2322 516.035 47.9399C520.173 49.9759 528.317 50.37 535.805 48.925C545.394 47.086 548.415 48.7937 552.093 57.7916C553.866 62.1264 554.326 66.7239 553.406 70.993C552.881 73.3574 552.947 73.4888 554.523 73.4888C555.836 73.4888 556.231 73.0947 556.559 71.19C558.07 63.2429 567.79 49.7789 574.686 46.2322C576.459 45.3127 577.379 45.2471 580.86 45.8382C587.756 47.0204 597.017 46.692 597.017 45.1814C597.017 44.0648 593.733 42.4886 590.318 42.0288C587.099 41.6347 582.83 42.2258 579.612 43.6051C578.89 43.8678 578.036 44.2619 577.642 44.3932C577.313 44.5903 578.167 43.6051 579.612 42.2915C583.553 38.6792 587.822 36.7089 591.894 36.6432C594.652 36.6432 595.046 36.5118 593.864 36.0521C593.076 35.7237 591.96 35.5923 591.434 35.7894C589.727 36.4461 590.383 35.1326 592.157 34.2788C593.93 33.4249 597.674 33.819 597.674 34.8042C597.674 35.1326 597.345 35.3953 596.885 35.3953C596.491 35.3953 596.294 35.5923 596.557 35.7894C596.754 36.0521 598.199 35.7237 599.775 35.1326C602.665 33.9504 606.54 30.6664 608.97 27.3168C610.547 25.1495 612.78 19.2384 612.254 18.713C611.597 17.9905 608.511 18.3846 605.555 19.5011ZM607.066 21.5371C605.095 23.1791 605.161 23.5732 607.394 23.5732C609.102 23.6389 609.102 23.6389 607.919 24.5584C607.197 25.0838 605.949 25.5435 605.161 25.5435C604.307 25.5435 603.519 25.8062 603.322 26.069C603.125 26.3973 603.913 26.5287 605.095 26.3973C607.066 26.1346 607.131 26.2003 605.949 27.1198C604.504 28.302 600.958 28.5647 600.958 27.5139C600.958 27.1198 601.22 26.8571 601.483 26.8571C601.746 26.8571 602.534 25.8719 603.256 24.6897C604.636 22.391 606.803 20.3549 607.854 20.3549C608.248 20.3549 607.854 20.8804 607.066 21.5371ZM602.534 23.2448C601.614 24.4927 600.695 25.5435 600.563 25.5435C600.104 25.5435 601.155 23.2448 602.14 22.0626C603.979 19.9609 604.307 20.946 602.534 23.2448ZM610.152 21.9312C609.693 22.4566 608.839 22.9164 608.248 22.9164C607.394 22.8507 607.394 22.7194 608.445 21.9312C610.152 20.6833 611.203 20.6833 610.152 21.9312ZM599.316 25.7406C598.199 28.105 596.36 29.4842 596.36 27.9736C596.36 26.9885 599.71 22.785 600.104 23.1791C600.301 23.3105 599.907 24.4927 599.316 25.7406ZM594.981 30.4037C593.339 32.177 593.076 31.5859 594.258 28.8275C595.112 26.7914 595.243 26.6601 595.703 27.8423C596.097 28.7618 595.835 29.5499 594.981 30.4037ZM603.979 30.0753C603.125 30.9948 602.14 31.2576 600.104 31.0605C598.593 30.9292 597.871 30.9948 598.527 31.1919C600.629 31.8487 599.644 32.7682 596.885 32.7682H594.127L596.754 30.7978C598.659 29.3529 600.038 28.8275 602.205 28.8275C605.03 28.8275 605.095 28.8931 603.979 30.0753ZM586.508 44.6559C586.508 45.05 586.837 45.1157 587.165 44.9187C587.559 44.6559 587.625 44.1962 587.428 43.8021C586.837 42.8826 592.091 43.6051 593.667 44.6559C594.455 45.1814 593.864 45.2471 591.565 44.9843C589.595 44.7216 588.544 44.853 588.807 45.2471C589.267 45.9695 588.216 46.1009 586.049 45.5098C585.195 45.2471 584.669 44.853 584.866 44.5903C584.998 44.3276 584.078 44.1962 582.699 44.2619L580.269 44.4589L582.239 43.6051C584.275 42.7513 586.508 43.2767 586.508 44.6559ZM572.059 44.853C572.059 44.9843 571.534 45.5098 570.942 45.9695C569.892 46.8233 569.826 46.7577 570.68 45.7068C571.534 44.6559 572.059 44.3276 572.059 44.853Z" fill="black"/>
<path d="M289.642 21.6026C285.832 22.9819 280.644 24.6238 278.148 25.2149C272.106 26.5942 271.646 26.9226 272.171 29.3527C272.631 31.2574 272.762 31.323 277.294 31.5858C284.059 31.9798 284.781 32.965 285.373 43.0795C285.635 47.3486 285.701 71.0585 285.504 95.8192L285.11 140.809L283.468 142.254C282.548 143.042 280.381 143.896 278.673 144.159C274.273 144.75 273.222 145.472 273.222 147.705V149.61H290.955H308.688V147.048C308.688 144.75 308.491 144.421 307.178 144.421C306.324 144.421 304.222 143.962 302.515 143.37C297.523 141.663 297.392 141.072 297.654 119.529L297.851 101.402L299.953 98.3807C304.288 92.1412 309.28 89.5798 315.847 90.0395C321.824 90.4336 325.502 92.9951 328.326 98.6434L330.625 103.175L330.888 119.463C331.085 128.396 330.953 137.131 330.756 138.773C330.231 142.32 329.049 143.305 323.794 144.618C320.445 145.472 320.182 145.735 319.985 147.64L319.788 149.676H336.93H354.072L353.875 147.245C353.678 144.815 353.612 144.75 350.066 144.093C345.468 143.173 343.564 142.123 343.17 140.284C343.038 139.495 342.776 130.103 342.644 119.463C342.447 98.0523 342.25 97.0671 337.718 90.4336C330.1 79.3996 313.286 79.3996 301.332 90.4336L297.326 94.1773L297.786 56.5436C298.114 26.1344 298.049 18.9755 297.392 19.0412C296.932 19.0412 293.451 20.2234 289.642 21.6026Z" fill="black"/>
<path d="M558.726 22.1281C558.398 22.5878 558.069 24.6239 557.872 26.7256L557.61 30.4692L558.595 27.1853C559.646 23.7044 559.711 20.5518 558.726 22.1281Z" fill="black"/>
<path d="M389.801 31.5202C386.517 39.336 385.401 45.3127 386.714 48.531C387.371 49.9759 387.437 49.8445 387.568 46.889C387.634 45.05 387.765 43.014 387.831 42.2915C387.897 41.569 388.028 40.2555 388.094 39.336C388.225 37.0372 390.589 33.2279 391.575 33.819C392.166 34.2131 392.166 34.4101 391.575 34.6071C391.115 34.7385 390.261 35.7893 389.67 36.9059L388.619 39.0076L390.064 37.7597C390.787 37.0372 391.443 36.8402 391.443 37.2343C391.443 37.6283 391.115 38.1538 390.721 38.3508C390.327 38.6135 390.195 39.2703 390.392 39.7957C390.655 40.3212 390.195 42.6856 389.473 45.05C387.7 50.8954 387.897 51.5522 390.13 46.9547C391.575 43.9335 392.166 41.4377 392.823 35.3296C393.282 30.9948 393.939 27.5139 394.267 27.5139C394.662 27.5139 394.727 28.8274 394.465 30.6007C394.202 32.3741 393.873 35.5266 393.742 37.694L393.414 41.6347L394.333 39.336C394.859 38.0881 395.318 35.5923 395.318 33.8847C395.384 31.8486 395.647 30.8635 396.106 31.1262C396.501 31.3889 396.632 32.9652 396.369 35.2639C396.041 38.2851 396.106 38.7449 396.763 37.7597C397.683 36.2491 397.223 29.0901 395.975 26.463C394.202 22.785 393.151 23.6388 389.801 31.5202Z" fill="black"/>
<path d="M0.262714 27.054C0.0656784 27.6451 0 28.7616 0.131357 29.6154C0.328392 30.9947 0.722462 31.1917 5.31995 31.5201C11.0997 31.9798 12.7416 32.7023 14.1209 35.3951C15.6315 38.285 15.3031 138.05 13.7925 140.284C12.6103 142.123 8.66955 143.765 5.38563 143.765C0.853819 143.765 0 144.29 0 146.983V149.347H40.6549C63.0513 149.347 81.5069 149.15 81.7039 148.953C82.1637 148.493 86.6955 122.682 86.6955 120.711C86.6955 119.726 86.1701 119.463 84.4624 119.463C82.295 119.463 82.1637 119.661 81.0471 122.879C80.456 124.783 79.0768 128.133 77.9603 130.3C72.3119 141.663 68.1085 143.37 46.1062 142.976L33.496 142.779L31.7227 140.94L29.8837 139.167L29.6866 115.851L29.4896 92.5353H43.8075C53.8563 92.5353 58.5851 92.7981 59.7017 93.3892C62.2631 94.7027 63.7081 97.2642 64.5619 101.927L65.2843 106.328H67.9771H70.7356L70.8013 89.7768C70.8013 77.7577 70.6043 73.0288 70.0789 72.7005C69.6191 72.4377 68.5026 72.175 67.5174 72.175C65.6127 72.175 65.4157 72.5691 64.6932 77.7577C64.0364 82.7493 62.7886 85.1794 60.6212 85.7705C59.636 86.0332 52.28 86.2959 44.3329 86.2959H29.8837L30.015 60.3529L30.2121 34.4099L31.657 33.162C32.8392 32.2425 33.9557 32.0455 37.371 32.2425C41.3774 32.5053 41.6401 32.6366 44.0045 35.3951C45.5151 37.1684 46.2376 38.482 45.8435 38.7447C45.3838 39.0074 45.6465 40.124 46.566 41.7002C47.8139 43.8676 48.6677 44.4587 52.4114 45.7723C55.958 46.9545 56.2864 47.1516 54.1847 46.8888C52.7398 46.6918 50.9008 46.3634 50.0469 46.1664C48.2736 45.6409 48.3393 46.1664 50.3097 50.1071C51.6889 52.9313 54.7101 54.9673 57.797 55.1643C58.9135 55.23 59.1106 55.3614 58.3224 55.5584C57.6656 55.6897 57.1402 56.1495 57.1402 56.4779C57.1402 57.2003 69.1594 56.8063 71.1297 56.0838C71.9835 55.6897 72.2462 54.8359 72.2462 51.6834C72.2462 49.2533 72.509 47.9397 72.903 48.2024C73.2971 48.4651 73.5598 47.677 73.5598 46.2977C73.5598 41.8316 74.742 43.3422 75.2018 48.3338C75.7929 55.3614 75.7929 55.427 76.6467 55.427C77.0408 55.427 77.5662 55.6241 77.8289 55.8868C78.0916 56.1495 78.6827 56.1495 79.1425 56.0181C79.7993 55.7554 79.8649 53.7194 79.6022 47.1516C79.2738 39.1388 79.3395 38.6134 80.5217 38.285C81.7039 37.9566 83.74 34.804 83.0832 34.2129C82.9518 34.0159 82.0323 34.4099 81.1785 35.001C80.259 35.5921 79.3395 36.0519 79.0768 36.0519C78.617 36.0519 79.2738 30.2065 79.8649 28.5646C80.259 27.5794 68.4369 27.1196 25.8116 26.3972C3.3496 26.0688 0.656784 26.1345 0.262714 27.054ZM77.6976 32.8993C77.8946 35.1981 77.8289 38.3506 77.5662 39.9926L77.0408 42.9481L76.7781 39.9926C76.6467 38.3506 76.5153 35.9862 76.5153 34.6727C76.4497 33.3591 76.1869 31.7828 75.9899 31.1917C75.7272 30.5349 75.6615 29.7468 75.9242 29.4184C76.7781 27.9735 77.3692 29.09 77.6976 32.8993ZM61.2779 33.0307C65.8754 33.2277 69.4221 33.6218 70.0132 34.1472C70.5386 34.5413 70.9327 35.8549 70.9327 36.9714C70.9327 38.0879 71.3924 40.4524 71.9179 42.2257C72.4433 43.999 72.903 45.838 72.903 46.3634C72.903 48.1367 71.7865 46.5604 70.9327 43.6049C70.1445 40.9121 69.9475 40.6494 68.0428 40.6494C66.5322 40.6494 66.2695 40.8464 66.992 41.2405C67.5174 41.6346 68.1085 41.7659 68.3712 41.5689C69.225 41.0435 70.2102 42.9481 69.6191 43.9333C69.1594 44.7214 68.831 44.7214 68.1742 44.0647C67.5831 43.4736 67.5831 43.2765 68.3712 43.2765C68.831 43.2765 67.9771 42.6854 66.4009 41.963C63.4453 40.5837 59.3733 40.1896 60.0957 41.3062C60.5555 42.0286 67.3204 45.2469 68.3712 45.2469C68.7653 45.2469 68.8966 45.5096 68.6996 45.838C68.5026 46.1664 68.7653 46.5604 69.2907 46.8232C69.8161 47.0202 70.2759 47.8083 70.2759 48.5308C70.2759 49.6473 69.8818 49.8444 67.7144 49.8444C64.7589 49.8444 61.7377 48.8592 61.7377 47.9397C61.7377 47.5456 62.5258 47.5456 63.8394 47.9397C65.0216 48.2681 66.7293 48.5308 67.6488 48.5308C69.225 48.4651 69.225 48.4651 68.0428 47.5456C67.3204 47.0202 66.2695 46.5604 65.6127 46.5604C65.0216 46.5604 64.1678 46.1007 63.7081 45.5753C61.7377 43.2108 57.1402 40.7807 53.7906 40.321C48.9961 39.6642 46.8944 38.8104 47.7482 37.9566C48.2079 37.4968 47.6168 36.5116 45.7778 34.804L43.085 32.3082L48.3393 32.5053C51.1635 32.6366 57.0089 32.8337 61.2779 33.0307ZM51.7546 41.5689C53.2652 42.2913 55.6296 43.0138 60.0957 44.1303C60.4898 44.196 61.4093 44.7871 62.2631 45.3126L63.7737 46.3634L62.2631 46.7575C61.4093 47.0202 60.3585 46.7575 59.7673 46.2321C59.1762 45.7066 58.1254 45.2469 57.4686 45.2469C55.3012 45.2469 51.3605 43.802 49.5215 42.2257C47.9452 40.9778 47.8139 40.7151 48.7991 40.6494C49.5215 40.6494 50.8351 41.0435 51.7546 41.5689ZM63.1826 49.8444C64.8903 50.6325 66.4665 50.9609 67.9771 50.6982C70.0132 50.3698 70.2759 50.5011 70.2759 51.8147C70.2759 53.1283 70.0789 53.2596 67.9115 52.7999C66.4665 52.5372 65.6784 52.6029 65.9411 52.9969C66.5979 54.1135 60.1614 54.5075 57.3372 53.5224C53.7906 52.2745 51.8859 51.0266 51.8859 49.9757C51.8859 49.3189 52.2143 49.3189 53.3965 49.91C54.1847 50.3698 54.9728 50.8952 55.1699 51.1579C55.3669 51.4206 57.6 51.749 60.0957 51.9461C63.8394 52.2745 64.2335 52.2088 62.0661 51.6834C56.8775 50.5011 52.5427 49.0562 52.1487 48.4651C51.4919 47.4143 60.4898 48.5308 63.1826 49.8444Z" fill="black"/>
<path d="M49.4558 36.249C50.9007 37.7597 52.1486 38.4164 54.7101 38.7448C59.4389 39.4016 68.831 39.4673 69.225 38.8105C69.8161 37.8253 68.8966 35.5266 67.7801 35.0012C67.1233 34.7384 62.3945 34.4757 57.1402 34.4101L47.5511 34.213L49.4558 36.249ZM66.0068 36.7088C67.9115 37.1029 66.6636 37.2342 61.0809 37.2342C56.9432 37.2342 52.9368 37.0372 52.2143 36.7745C50.5067 36.1177 62.6572 36.052 66.0068 36.7088Z" fill="black"/>
<path d="M104.232 30.1409C95.7591 32.8994 92.2782 34.6727 88.3375 38.3507C86.3671 40.0583 85.3163 40.5838 84.2654 40.321C82.5578 39.927 82.3607 40.5181 83.6086 42.2257C84.3311 43.2109 84.7908 43.2766 85.8417 42.7511C86.5642 42.3571 87.3523 42.16 87.5493 42.4227C87.7464 42.6198 88.7972 42.5541 89.7824 42.2914C91.4244 41.8973 91.49 41.766 90.3735 41.3719C89.257 40.9121 89.651 40.4524 93.1977 37.9566C98.9117 33.9502 102.393 31.9142 104.035 31.7172C104.823 31.6515 106.005 31.3888 106.727 31.0604C107.516 30.7977 106.727 31.9799 104.757 34.0159C102.984 35.8549 101.867 37.3655 102.261 37.3655C102.655 37.3655 104.232 35.9863 105.742 34.2129C108.632 30.9947 111.588 28.696 109.749 31.1917C109.223 31.8485 107.581 33.7532 106.136 35.3952C104.626 36.9714 104.166 37.7596 105.02 37.0371C107.45 35.0011 114.28 28.2362 114.28 27.8421C114.28 27.1197 111.719 27.7108 104.232 30.1409ZM94.9053 35.5922C94.1828 36.1176 92.7379 37.0371 91.6214 37.6282C89.7167 38.7448 89.7167 38.7448 91.9498 36.7744C93.1977 35.6579 94.6426 34.7384 95.168 34.7384C95.9562 34.7384 95.8248 34.9354 94.9053 35.5922Z" fill="black"/>
<path d="M447.927 28.8273C447.007 29.5498 446.548 30.1409 446.81 30.1409C447.139 30.1409 448.124 29.5498 449.043 28.8273C449.963 28.1048 450.488 27.5137 450.16 27.5137C449.831 27.5137 448.846 28.1048 447.927 28.8273Z" fill="black"/>
<path d="M659.74 28.6959C652.515 31.1917 647.195 35.2637 642.532 41.7659C636.752 49.91 633.928 59.4334 632.483 76.4441C632.023 81.173 631.498 84.4569 630.972 84.7853C630.513 85.048 628.214 85.4421 625.784 85.7048C621.186 86.1645 620.661 86.5586 620.661 90.3679C620.661 91.8129 620.858 91.8785 626.572 91.8785H632.483V116.18V140.546L630.972 142.057C629.922 143.108 628.28 143.764 625.849 144.093C621.974 144.618 621.318 145.144 621.318 147.837V149.676H640.299C650.807 149.676 659.477 149.479 659.674 149.15C659.805 148.887 659.74 147.64 659.477 146.392L659.017 144.093L653.566 143.764C648.64 143.436 647.917 143.173 646.538 141.597L644.962 139.758V115.785V91.8785H653.828C660.396 91.8785 662.826 91.6815 663.023 91.0247C663.155 90.6306 663.418 89.12 663.68 87.7408L664.074 85.3107H654.42H644.765L645.159 68.3657C645.553 50.3041 646.144 46.232 649.165 41.5032C651.136 38.285 652.646 36.9714 655.733 35.7235C660.528 33.6875 664.337 35.6578 665.979 40.9778C667.358 45.3125 668.409 46.1007 672.481 45.7723C675.568 45.5096 676.356 45.1155 678.327 42.9481C680.363 40.7807 680.56 40.1896 680.297 37.6938C679.377 29.6811 669.46 25.3463 659.74 28.6959Z" fill="black"/>
<path d="M443.526 31.5201C441.228 32.965 440.505 33.9502 442.541 32.8337C443.986 31.9799 446.35 30.2065 445.956 30.1409C445.759 30.1409 444.643 30.7976 443.526 31.5201Z" fill="black"/>
<path d="M447.204 32.1115C445.168 33.7534 446.416 33.8191 448.584 32.1115C449.503 31.389 449.897 30.7979 449.503 30.7979C449.043 30.7979 448.058 31.389 447.204 32.1115Z" fill="black"/>
<path d="M559.843 32.8996L558.595 34.4102L560.105 33.1623C561.485 31.9801 561.879 31.4546 561.353 31.4546C561.222 31.4546 560.565 32.1114 559.843 32.8996Z" fill="black"/>
<path d="M102.13 34.0817C101.473 34.8042 101.21 35.3953 101.539 35.3953C101.867 35.3953 102.524 34.8042 102.984 34.0817C103.444 33.3592 103.706 32.7681 103.575 32.7681C103.444 32.7681 102.787 33.3592 102.13 34.0817Z" fill="black"/>
<path d="M98.846 37.694C97.7952 38.5478 97.2041 39.2703 97.5981 39.3359C98.2549 39.3359 101.145 36.9715 101.145 36.3804C101.145 35.855 100.882 35.9863 98.846 37.694Z" fill="black"/>
<path d="M535.607 38.9418C536.724 39.8613 537.906 40.6494 538.235 40.6494C538.957 40.5837 536.921 38.8761 534.951 37.9566C534.228 37.5625 534.557 38.0223 535.607 38.9418Z" fill="black"/>
<path d="M100.422 39.1388C99.5684 40.1897 99.6341 40.2554 100.685 39.4015C101.276 38.9418 101.802 38.4164 101.802 38.285C101.802 37.7596 101.276 38.088 100.422 39.1388Z" fill="black"/>
<path d="M396.172 39.9269C395.712 40.1896 394.924 42.2913 394.464 44.5901C393.611 48.5965 393.611 48.6621 394.793 47.1515C395.909 45.7066 397.683 40.1239 397.223 39.5985C397.092 39.5328 396.632 39.6642 396.172 39.9269Z" fill="black"/>
<path d="M96.6786 40.9122C95.562 41.3719 94.2485 42.0287 93.7887 42.4884C92.2124 44.0647 95.4964 43.3423 97.5324 41.6346C99.6998 39.8613 99.6998 39.8613 96.6786 40.9122Z" fill="black"/>
<path d="M388.553 41.0436C388.225 41.9631 388.291 42.0288 389.145 41.3063C390.261 40.3868 390.392 39.9928 389.539 39.9928C389.21 39.9928 388.751 40.4525 388.553 41.0436Z" fill="black"/>
<path d="M559.252 40.6494C559.055 40.9778 559.12 41.3062 559.514 41.3062C559.843 41.3062 560.368 40.9778 560.565 40.6494C560.762 40.2553 560.697 39.9926 560.302 39.9926C559.974 39.9926 559.449 40.2553 559.252 40.6494Z" fill="black"/>
<path d="M106.859 41.3062C104.757 41.6346 102.59 42.2257 101.933 42.6197C100.948 43.2765 100.948 43.2765 102.13 43.0138C107.187 41.8973 107.45 41.8973 106.136 42.9481C104.494 44.196 105.217 44.196 107.581 43.0138C108.566 42.4884 110.865 41.8973 112.638 41.7002C116.514 41.2405 115.988 41.5032 106.727 44.9842C103.509 46.2321 101.867 47.0202 103.115 46.8232C104.363 46.5604 108.172 45.3782 111.588 44.196C118.615 41.6346 119.009 41.5689 118.418 43.0795C118.155 43.802 118.221 43.999 118.747 43.6706C119.141 43.4079 121.045 43.7363 122.95 44.2617C128.992 46.1664 129.452 46.5604 124.789 46.2977C122.425 46.1007 121.111 46.1007 121.833 46.2977C125.314 47.1516 130.503 48.7278 131.685 49.2533C132.408 49.6473 133.918 50.0414 134.969 50.1728C136.086 50.3041 137.071 50.4355 137.268 50.5012C137.465 50.5668 134.181 51.2893 130.043 52.1431C121.242 53.9821 114.675 54.1791 107.384 52.7999C101.736 51.6834 92.7379 47.874 94.774 47.4143C96.7443 46.8888 95.9562 45.9037 93.5917 45.9037C92.2782 45.9037 90.1765 45.4439 88.8629 44.9185C85.9074 43.6706 85.1849 44.1303 87.9434 45.5753C89.0599 46.1007 89.9794 47.0202 89.9794 47.5456C89.9794 48.0054 90.5705 48.6622 91.293 48.8592C92.0155 49.1219 93.0006 50.2384 93.5261 51.4207C94.6426 54.1791 100.16 59.6305 103.969 61.8635C106.727 63.5055 109.289 64.425 107.056 62.9801C106.465 62.586 106.399 62.3233 106.859 62.3233C107.253 62.3233 107.844 62.586 108.041 62.9801C108.566 63.8995 115.397 63.8339 115.988 62.9144C116.251 62.4546 115.988 62.3233 115.069 62.586C114.346 62.8487 111.719 62.586 109.289 61.9949C104.1 60.8127 97.2697 56.1495 95.5621 52.6685C94.971 51.4863 94.2485 50.3698 93.9201 50.1728C93.5261 49.9757 93.2634 49.4503 93.2634 49.0562C93.2634 48.7278 94.3799 49.0562 95.7591 49.8444C101.145 53.0626 106.99 54.5732 115.266 54.9016C121.833 55.1643 124.067 54.9673 128.533 53.8508C136.02 51.9461 137.071 52.2088 131.685 54.7702C126.825 57.069 126.168 57.7915 130.437 56.0181C131.882 55.427 132.736 55.2957 132.342 55.6241C132.014 56.0181 129.781 57.1347 127.416 58.1198C124.001 59.5648 121.833 59.9588 116.776 60.2216C112.77 60.4186 110.34 60.2872 110.34 59.8275C110.34 59.4991 109.42 59.0393 108.369 58.7766C106.202 58.3826 101.342 55.3614 98.3863 52.6029C97.4011 51.6834 96.3502 51.0923 96.1532 51.355C95.5621 51.9461 100.225 56.3465 102.196 57.1347C103.246 57.4631 103.641 57.9885 103.378 58.5139C103.049 59.0393 103.246 59.105 104.035 58.8423C104.626 58.5796 105.02 58.6453 104.823 58.908C104.232 59.8275 110.602 61.3381 114.806 61.2724C117.236 61.2724 118.615 61.4694 118.09 61.7322C117.499 62.1262 117.696 62.3233 118.747 62.3233C119.6 62.3233 120.06 62.0606 119.863 61.6665C119.6 61.2724 120.389 61.0097 121.768 61.0097C124.526 61.0097 134.838 55.9525 134.181 54.9016C133.984 54.5075 134.115 54.4419 134.509 54.7046C135.232 55.1643 137.859 54.1135 138.581 53.1283C138.778 52.8656 139.501 52.3401 140.223 51.9461C141.406 51.2893 141.143 51.0923 137.728 49.5817C135.626 48.6622 133.459 47.874 132.802 47.874C132.211 47.874 131.225 47.5456 130.7 47.1516C129.912 46.6261 130.109 46.5604 131.357 46.8888C132.276 47.0859 130.24 45.9037 126.891 44.196C121.505 41.5689 120.126 41.1748 115.725 40.9778C112.967 40.8464 108.96 40.9778 106.859 41.3062Z" fill="black"/>
<path d="M100.488 44.9186C98.9773 45.5097 98.6489 45.8381 99.5028 45.8381C100.225 45.8381 101.736 45.4441 102.787 44.9186C105.348 43.8021 103.509 43.7364 100.488 44.9186Z" fill="black"/>
<path d="M390.721 47.677C389.933 49.7787 388.948 51.6834 388.619 51.8804C388.291 52.1431 387.437 53.5881 386.78 55.1643L385.532 58.0542L388.028 55.23C389.736 53.3254 390.852 51.158 391.575 48.3995C392.231 46.1664 392.625 44.1961 392.494 44.1304C392.363 43.999 391.575 45.5753 390.721 47.677Z" fill="black"/>
<path d="M113.952 45.5754C112.441 46.2321 112.31 46.4949 113.295 46.4949C114.674 46.5605 116.711 45.5097 116.251 44.9843C116.054 44.8529 115.069 45.1156 113.952 45.5754Z" fill="black"/>
<path d="M117.433 45.7067C117.827 45.838 118.615 45.838 119.075 45.7067C119.469 45.5096 119.141 45.3783 118.221 45.3783C117.302 45.3783 116.973 45.5096 117.433 45.7067Z" fill="black"/>
<path d="M98.3863 47.0202C98.846 47.2172 99.4371 47.1515 99.6342 46.9545C99.8969 46.7575 99.5028 46.5604 98.7803 46.6261C98.0579 46.6261 97.8608 46.8232 98.3863 47.0202Z" fill="black"/>
<path d="M99.9625 48.5966C101.013 49.3191 105.808 49.3191 106.793 48.6623C107.253 48.3996 105.677 48.2026 103.312 48.1369C100.882 48.1369 99.4371 48.3339 99.9625 48.5966Z" fill="black"/>
<path d="M116.251 49.2534C123.016 50.1729 130.7 50.5013 128.467 49.8445C127.416 49.5161 125.643 49.3848 124.526 49.5818C122.95 49.8445 122.753 49.7789 123.475 49.2534C124.198 48.728 122.819 48.5966 118.221 48.6623L111.982 48.728L116.251 49.2534Z" fill="black"/>
<path d="M750.704 50.5012C749.916 51.0266 750.113 51.158 751.558 51.158C752.543 51.158 753.331 50.8296 753.331 50.5012C753.331 49.6474 752.018 49.6474 750.704 50.5012Z" fill="black"/>
<path d="M761.541 50.5012C761.738 50.8296 762.264 51.158 762.592 51.158C762.986 51.158 763.052 50.8296 762.855 50.5012C762.658 50.1071 762.132 49.8444 761.804 49.8444C761.41 49.8444 761.344 50.1071 761.541 50.5012Z" fill="black"/>
<path d="M431.835 51.1582C432.032 51.4865 432.492 51.8149 432.886 51.8149C433.215 51.8149 433.477 51.4865 433.477 51.1582C433.477 50.7641 433.018 50.5014 432.427 50.5014C431.901 50.5014 431.638 50.7641 431.835 51.1582Z" fill="black"/>
<path d="M764.497 51.8147C765.81 52.6685 766.664 52.6685 766.139 51.8147C765.942 51.4206 765.219 51.1579 764.628 51.1579C763.643 51.1579 763.643 51.2893 764.497 51.8147Z" fill="black"/>
<path d="M123.804 57.7258C122.95 58.0542 122.884 58.3169 123.475 58.3169C124.001 58.3169 125.052 58.0542 125.774 57.7258C126.628 57.3974 126.694 57.1347 126.103 57.1347C125.577 57.1347 124.526 57.3974 123.804 57.7258Z" fill="black"/>
<path d="M117.893 59.0395C116.119 59.4993 116.119 59.5649 117.564 59.5649C118.484 59.5649 119.929 59.3022 120.848 59.0395C122.162 58.6454 122.228 58.5141 121.177 58.5141C120.454 58.5141 119.009 58.7768 117.893 59.0395Z" fill="black"/>
<path d="M772.247 59.4992C772.707 59.6962 773.298 59.6306 773.495 59.4335C773.757 59.2365 773.363 59.0394 772.641 59.1051C771.918 59.1051 771.721 59.3022 772.247 59.4992Z" fill="black"/>
<path d="M684.566 74.1455C680.034 79.2684 675.896 83.0778 672.284 85.2452C670.445 86.4274 669.92 87.1498 669.92 88.6604V90.5651H674.123H678.327L678.589 114.669C678.786 138.445 678.786 138.904 680.363 142.32C683.252 148.756 688.178 151.449 696.125 150.792C700.657 150.464 707.947 147.246 712.02 143.765L714.253 141.86L712.939 140.546L711.625 139.233L707.685 141.203C704.401 142.845 703.153 143.174 700.263 142.911C695.731 142.582 693.564 140.94 692.119 136.803C691.134 134.044 691.002 130.629 690.937 112.173V90.7621L700.526 90.4338C710.969 90.1054 711.297 90.0397 711.297 86.099V83.9973H701.117H690.937V76.7726C690.937 67.7747 690.346 67.5777 684.566 74.1455Z" fill="black"/>
<path d="M239.529 71.9781C235.194 77.3637 227.838 84.3256 225.211 85.6392C222.453 87.0841 222.256 87.3468 222.518 89.1858L222.781 91.2219H227.641H232.502V113.75C232.502 138.642 232.764 140.546 236.508 145.669C241.631 152.763 253.322 152.96 262.517 146.195C264.29 144.947 266.26 143.239 266.983 142.517C268.099 141.203 268.099 141.006 267.18 140.021C266.195 139.101 265.735 139.167 261.991 141.072C257.328 143.436 254.372 143.633 250.497 141.86C248.461 140.94 247.411 139.89 246.228 137.459C244.652 134.307 244.652 133.913 244.455 112.37L244.192 90.5651H253.716C264.224 90.5651 264.027 90.6308 264.027 86.2303V83.9972H254.175H244.324V77.101V70.2048H242.682C241.697 70.2048 240.449 70.9272 239.529 71.9781Z" fill="black"/>
<path d="M178.645 83.3403C175.23 84.7196 170.435 86.3615 168.005 86.9527C164.524 87.8065 163.539 88.3319 163.539 89.2514C163.539 92.2069 164.13 92.5353 169.188 92.5353C173.851 92.5353 174.113 92.601 174.705 94.243C175.427 96.082 175.624 137.853 174.967 140.349C174.442 142.123 172.34 143.305 167.743 144.356C164.853 145.078 164.262 145.472 163.999 146.917C163.802 147.902 163.802 148.887 163.999 149.15C164.13 149.479 172.537 149.676 182.652 149.676H200.976V147.114V144.618L195.656 143.896C187.183 142.845 187.512 143.567 187.446 124.849C187.446 109.546 187.446 109.218 189.285 103.898C191.715 96.6074 192.766 94.7027 195.065 93.5205C198.874 91.5501 201.83 92.3383 203.603 95.8192C205.048 98.5777 205.902 99.1032 209.514 99.1032C216.213 99.1032 219.563 89.9082 214.834 84.3912C212.076 81.173 204.785 80.3848 199.859 82.7492C196.378 84.4569 191.912 89.3828 189.22 94.637L187.183 98.6434V89.6455C187.183 81.567 187.052 80.7132 186.067 80.7789C185.41 80.7789 182.061 81.9611 178.645 83.3403Z" fill="black"/>
<path d="M513.933 83.0776C510.715 84.3912 505.855 85.9675 503.162 86.6899C500.469 87.3467 498.236 88.0035 498.105 88.1349C498.039 88.2006 498.171 89.2514 498.302 90.3679L498.63 92.5353H502.834C509.27 92.5353 509.008 91.3531 509.008 118.019V140.546L507.497 142.057C506.578 142.976 504.673 143.83 503.031 144.093C498.827 144.815 497.842 145.472 497.842 147.705V149.676H516.232H534.622V147.442C534.622 146.195 534.294 144.947 533.965 144.75C533.571 144.553 531.207 144.093 528.711 143.83C521.027 143.042 521.224 143.37 520.961 125.375C520.698 109.349 521.092 105.671 523.72 100.088C525.953 95.2938 528.711 92.5353 531.47 92.5353C533.243 92.5353 534.162 93.0608 536.593 95.8849C539.351 98.9718 539.876 99.2345 542.307 99.2345C545.853 99.1688 548.021 97.7239 549.728 94.1773C554.063 85.245 543.357 78.2174 533.309 83.3404C530.156 84.9823 525.23 90.565 522.997 94.9654C522.078 96.8701 521.158 98.4464 520.961 98.4464C520.83 98.4464 520.83 95.9506 521.092 92.9294C521.552 87.4781 521.092 80.7132 520.239 80.7132C520.042 80.7789 517.217 81.8297 513.933 83.0776Z" fill="black"/>
<path d="M115.134 82.618C109.157 84.26 105.677 86.0333 101.999 89.4485C97.204 93.849 96.0218 98.1838 98.5176 102.19C101.342 106.919 108.632 106.394 110.734 101.336C111.588 99.3003 111.588 98.5778 110.734 95.2939C110.143 92.9952 110.011 91.1562 110.405 90.4994C110.668 89.9083 112.507 88.7918 114.346 87.9379C118.812 86.0333 124.198 86.296 127.285 88.529C131.028 91.1562 132.276 94.5058 132.539 102.781L132.802 110.072L129.649 111.385C127.876 112.108 123.213 113.815 119.206 115.194C106.662 119.398 100.619 123.404 97.5981 129.447C94.3799 135.883 95.6277 143.042 100.751 147.508C103.903 150.332 107.056 151.186 112.704 150.858C118.878 150.464 125.052 147.508 129.846 142.714C133.261 139.364 133.984 139.036 133.984 141.137C133.984 142.911 137.793 148.296 140.026 149.676C142.588 151.252 147.448 151.383 150.732 150.07C154.082 148.625 159.073 143.83 158.81 142.188C158.548 140.284 156.643 140.087 154.607 141.729C152.702 143.239 149.747 143.502 147.776 142.451C145.543 141.269 145.149 137.525 145.149 117.822C145.149 102.913 144.952 97.8554 144.164 94.8999C141.8 85.9676 136.217 81.8955 125.84 81.5671C121.505 81.4358 118.55 81.6985 115.134 82.618ZM132.67 124.389C132.67 134.767 132.342 136.08 128.927 139.298C126.3 141.794 122.556 143.173 118.484 143.173C112.113 143.173 108.369 139.693 108.369 133.716C108.369 128.724 110.996 125.178 117.564 121.04C120.651 119.201 130.372 114.932 131.882 114.866C132.473 114.866 132.67 117.231 132.67 124.389Z" fill="black"/>
<path d="M458.764 82.027C446.022 84.6541 435.382 94.9656 431.77 108.101C431.179 110.4 430.719 114.603 430.719 118.807C430.719 126.36 431.967 131.548 434.988 136.737C437.353 140.678 443.526 146.26 447.861 148.231C456.137 152.04 467.63 151.712 476.694 147.377C484.51 143.699 492.128 135.029 489.238 133.19C487.662 132.205 486.808 132.534 485.363 134.898C483.459 137.985 479.19 141.006 474.921 142.254C469.929 143.699 461.719 143.174 457.844 141.203C451.014 137.657 445.759 130.432 444.052 122.222C443.132 117.887 443.132 108.955 444.052 105.014C447.533 89.9741 464.346 80.7134 472.162 89.58C474.067 91.813 474.198 92.2071 474.198 97.33C474.198 103.175 474.395 103.767 476.76 104.949C481.882 107.707 488.253 101.008 486.743 94.5059C485.232 88.0037 481.094 84.1944 473.41 82.3554C468.944 81.3045 462.967 81.1731 458.764 82.027Z" fill="black"/>
<path d="M574.226 82.3553C563.783 85.2451 556.953 91.6816 556.953 98.5122C556.953 100.745 557.347 101.599 559.252 103.504C561.353 105.605 561.813 105.802 564.375 105.474C569.366 104.817 571.336 100.417 569.497 93.9803C568.972 92.207 569.103 91.6159 570.483 89.974C572.584 87.4782 575.868 86.4273 580.531 86.7557C585.063 87.0841 587.887 88.8574 589.923 92.7325C591.106 94.9655 591.434 96.9359 591.631 102.781L591.894 110.137L588.084 111.582C585.917 112.37 581.254 114.078 577.642 115.326C565.885 119.398 559.974 123.404 557.084 129.118C553.997 135.226 554.917 142.188 559.383 146.457C562.536 149.544 563.849 150.135 567.855 150.661C574.489 151.58 582.436 148.362 588.873 142.32C592.551 138.904 593.076 138.576 593.076 140.284C593.076 142.32 595.769 147.049 597.805 148.428C600.892 150.661 604.504 151.186 608.445 150.07C614.224 148.362 620.07 142.254 617.902 140.087C617.18 139.298 616.655 139.43 614.553 140.875C611.072 143.239 608.248 143.568 606.212 141.926L604.57 140.612L604.176 118.019C603.782 93.652 603.585 92.4697 599.907 87.6095C598.987 86.3616 596.557 84.5226 594.521 83.5375C591.303 81.9612 589.858 81.6985 584.209 81.5671C579.94 81.4358 576.459 81.6985 574.226 82.3553ZM591.762 124.455C591.762 132.993 591.631 134.307 590.449 136.212C586.18 143.108 576 145.538 570.942 140.94C568.906 139.036 568.512 138.248 568.25 135.095C567.527 126.491 570.089 123.995 587.822 115.983C591.828 114.144 591.762 113.947 591.762 124.455Z" fill="black"/>
<path d="M738.685 82.421C733.956 83.5375 731.592 84.7854 728.308 87.741C724.367 91.2876 722.856 94.6372 722.791 99.7601C722.791 109.086 726.534 113.553 739.999 120.12C750.441 125.178 753.66 127.411 755.302 130.629C757.6 135.161 756.615 139.43 752.346 142.977C744.924 149.085 732.643 145.604 731.198 136.934C730.935 135.423 730.804 133.979 730.869 133.716C731.198 132.534 728.965 129.447 727.191 128.724C724.17 127.476 722.134 128.659 721.215 132.205C720.295 135.818 720.295 136.868 721.215 140.021C722.134 143.502 725.746 147.246 729.884 149.019C734.679 151.121 744.333 151.58 749.785 150.004C761.804 146.523 769.16 136.606 767.058 126.754C765.679 120.12 760.884 115.72 747.486 108.889C735.532 102.716 732.248 99.366 733.234 94.2431C734.153 89.2516 738.16 86.6244 744.793 86.6244C751.361 86.6244 754.579 89.1202 756.221 95.4253C757.338 99.7601 757.929 100.417 761.081 100.417H763.183V92.9296V85.4422L759.965 84.063C753.988 81.5015 745.253 80.8447 738.685 82.421Z" fill="black"/>
<path d="M353.613 84.3256C353.35 84.8511 353.416 86.0333 353.613 86.9528C353.941 88.2006 354.466 88.5947 355.714 88.5947C360.443 88.5947 363.727 92.2727 368.719 103.11C369.967 105.802 374.039 114.341 377.782 122.091C381.592 129.841 386.058 139.233 387.831 142.976L390.984 149.676L388.159 155.784C382.84 167.08 378.767 173.911 375.221 177.589C373.25 179.559 371.017 181.333 370.229 181.53C369.375 181.792 367.471 181.333 365.829 180.61C362.151 178.903 360.18 178.903 357.356 180.413C354.598 181.924 352.693 185.273 352.693 188.623C352.693 190.659 353.153 191.644 354.926 193.417C359.195 197.687 366.092 196.307 373.382 189.608C379.424 184.091 385.467 173.714 393.611 154.93C395.581 150.398 399.916 140.481 403.2 132.928C406.549 125.309 410.884 115.129 412.92 110.269C419.619 93.849 421.918 90.368 427.172 88.5947C429.34 87.8723 430.785 85.4422 429.865 83.9972C429.603 83.6032 423.823 83.3404 416.007 83.3404H402.543L402.74 85.7705L402.937 88.2663L406.549 88.6604C411.278 89.1858 413.117 90.171 413.117 92.2727C413.117 94.1774 408.651 106.525 403.594 118.807C401.558 123.667 399.39 129.053 398.799 130.76C398.143 132.468 397.486 133.913 397.289 133.913C397.092 133.913 394.596 128.987 391.772 122.879C388.948 116.836 384.481 107.247 381.789 101.533C376.14 89.7113 376.14 89.5799 382.314 88.8574C385.664 88.4634 386.255 88.2006 386.583 86.8871C387.503 83.3404 387.568 83.3404 370.098 83.3404C356.371 83.3404 353.941 83.4718 353.613 84.3256Z" fill="black"/>
</svg>
